<?xml version="1.0" encoding="utf-8"?>
<!-- Generator: Adobe Illustrator 16.0.0, SVG Export Plug-In . SVG Version: 6.00 Build 0)  -->
<!DOCTYPE svg PUBLIC "-//W3C//DTD SVG 1.1//EN" "http://www.w3.org/Graphics/SVG/1.1/DTD/svg11.dtd">
<svg version="1.1" id="Layer_1" xmlns="http://www.w3.org/2000/svg" xmlns:xlink="http://www.w3.org/1999/xlink" x="0px" y="0px"
	 width="581.801px" height="86.808px" viewBox="0 0 581.801 86.808" enable-background="new 0 0 581.801 86.808"
	 xml:space="preserve">
<path fill="#3C69B1" d="M-116.748,126.786c0,10.968-8.89,19.858-19.858,19.858h-145.7c-10.969,0-19.858-8.891-19.858-19.858V-18.915
	c0-10.968,8.89-19.858,19.858-19.858h145.7c10.969,0,19.858,8.891,19.858,19.858V126.786z"/>
<text transform="matrix(1 0 0 1 -286.9512 113.8662)" fill="#FFFFFF" font-family="'Hero'" font-size="13.7884" letter-spacing="2">AVIAN ROBOTICS</text>
<g>
	<g>
		<path fill="#FFFFFF" d="M-156.214,41.362c0,0,1.181-15.98-8.095-27.313c-30.217,18.529-30.269,56.078-30.269,56.359
			c-15.98-21.118-41.08-25.892-60.978-25.756c-6.069,3.519-13.119,10.329-13.119,22.958c0.491,22.132,23.627,22.352,23.627,22.352
			h85.073c0.083,0,21.537-0.021,24.546-21.036C-133.977,45.885-156.214,41.362-156.214,41.362z M-202.119,47.254
			c5.097-19.396,21.13-29.936,35.606-35.606c-4.209-4.084-10.12-7.25-18.414-8.284c-26.78-2.725-34.928,22.154-34.928,22.154
			s-8.064-7.771-19-1.42c-6.977,4.304-8.104,11.176-8.167,14.759C-221.474,38.135-202.119,47.254-202.119,47.254z"/>
	</g>
	<path fill="#FFFFFF" d="M-246.917,41.206c0,0-4.043,0.783-8.638,3.447c-17.297,0.125-30.666,3.948-30.666,3.948
		c13.516-6.842,27.063-9.4,39.199-9.745C-247.063,40.297-246.917,41.206-246.917,41.206z"/>
	<path fill="#FFFFFF" d="M-140.191,5.244c-9.65,1.66-17.589,4.783-24.117,8.806c-0.679-0.836-1.409-1.631-2.204-2.402
		C-152.642,6.205-140.191,5.244-140.191,5.244z"/>
</g>
<g>
	<text transform="matrix(1 0 0 1 187.5234 56.9092)" fill="#344F80" font-family="'Hero'" font-size="36" letter-spacing="7">AVIAN ROBOTICS</text>
</g>
<g>
	<g>
		<path fill="#3C69B1" d="M130.007,38.208c0,0,1.181-15.98-8.095-27.313c-30.217,18.529-30.269,56.079-30.269,56.36
			c-15.98-21.119-41.08-25.893-60.978-25.756c-6.069,3.518-13.119,10.328-13.119,22.957c0.491,22.133,23.627,22.352,23.627,22.352
			h85.073c0.083,0,21.537-0.021,24.546-21.035C152.244,42.729,130.007,38.208,130.007,38.208z M84.102,44.099
			c5.097-19.396,21.13-29.935,35.606-35.606c-4.209-4.084-10.12-7.25-18.414-8.284c-26.78-2.725-34.928,22.154-34.928,22.154
			s-8.064-7.771-19-1.42c-6.977,4.304-8.104,11.176-8.167,14.759C64.747,34.98,84.102,44.099,84.102,44.099z"/>
	</g>
	<path fill="#3C69B1" d="M39.304,38.051c0,0-4.043,0.783-8.638,3.448C13.369,41.624,0,45.446,0,45.446
		c13.516-6.841,27.063-9.4,39.199-9.745C39.157,37.142,39.304,38.051,39.304,38.051z"/>
	<path fill="#3C69B1" d="M146.029,2.089c-9.65,1.66-17.589,4.783-24.117,8.806c-0.679-0.836-1.409-1.631-2.204-2.402
		C133.579,3.05,146.029,2.089,146.029,2.089z"/>
</g>
</svg>
